<svg
            viewBox="0 0 30 30"
            width="48"
            height="48"
            xmlns="http://www.w3.org/2000/svg"
          >
            <g fill="currentColor">
              <g id="svg_1">
                <path
                  id="svg_2"
                  d="m6,19l0,-2c0,-0.552 -0.448,-1 -1,-1l0,0c-0.552,0 -1,0.448 -1,1l0,2c0,0.552 0.448,1 1,1l0,0c0.552,0 1,-0.448 1,-1z"
                />
                <path
                  id="svg_3"
                  d="m10,5l0,0c0,0.553 0.448,1 1,1l2,0c0.552,0 1,-0.448 1,-1l0,0c0,-0.552 -0.448,-1 -1,-1l-2,0c-0.552,0 -1,0.448 -1,1z"
                />
                <path
                  id="svg_4"
                  d="m5,14l0,0c0.553,0 1,-0.448 1,-1l0,-2c0,-0.552 -0.448,-1 -1,-1l0,0c-0.552,0 -1,0.448 -1,1l0,2c0,0.552 0.448,1 1,1z"
                />
                <path
                  id="svg_5"
                  d="m23,6l1,0l0,1c0,0.552 0.448,1 1,1l0,0c0.552,0 1,-0.448 1,-1l0,-1c0,-1.105 -0.895,-2 -2,-2l-1,0c-0.552,0 -1,0.448 -1,1l0,0c0,0.552 0.448,1 1,1z"
                />
                <path
                  id="svg_6"
                  d="m16,5l0,0c0,0.552 0.448,1 1,1l2,0c0.552,0 1,-0.448 1,-1l0,0c0,-0.552 -0.448,-1 -1,-1l-2,0c-0.552,0 -1,0.448 -1,1z"
                />
                <path
                  id="svg_7"
                  d="m7,24l-1,0l0,-1c0,-0.552 -0.448,-1 -1,-1l0,0c-0.552,0 -1,0.448 -1,1l0,1c0,1.105 0.895,2 2,2l1,0c0.552,0 1,-0.448 1,-1l0,0c0,-0.552 -0.448,-1 -1,-1z"
                />
                <path
                  id="svg_8"
                  d="m6,7l0,-1l1,0c0.552,0 1,-0.448 1,-1l0,0c0,-0.552 -0.448,-1 -1,-1l-1,0c-1.105,0 -2,0.895 -2,2l0,1c0,0.552 0.448,1 1,1l0,0c0.552,0 1,-0.448 1,-1z"
                />
                <path
                  id="svg_9"
                  d="m24,11l0,2.001c0,0.552 0.448,1 1,1l0,0c0.552,0 1,-0.448 1,-1l0,-2.001c0,-0.552 -0.448,-1 -1,-1l0,0c-0.552,0 -1,0.448 -1,1z"
                />
              </g>
              <g id="svg_10">
                <path
                  id="svg_11"
                  d="m25,16l-1.764,0c-0.758,0 -1.45,-0.428 -1.789,-1.106l-0.171,-0.342c-0.169,-0.338 -0.515,-0.552 -0.894,-0.552l-4.764,0c-0.379,0 -0.725,0.214 -0.894,0.553l-0.171,0.342c-0.339,0.677 -1.032,1.105 -1.789,1.105l-1.764,0c-0.552,0 -1,0.448 -1,1l0,8c0,0.552 0.448,1 1,1l14,0c0.552,0 1,-0.448 1,-1l0,-8c0,-0.552 -0.448,-1 -1,-1zm-7,9c-2.209,0 -4,-1.791 -4,-4c0,-2.209 1.791,-4 4,-4s4,1.791 4,4c0,2.209 -1.791,4 -4,4z"
                />
                <circle id="svg_12" r="2" cy="21" cx="18" />
              </g>
            </g>
          </svg>